<svg width="20" height="20" viewBox="0 0 20 20" fill="none" xmlns="http://www.w3.org/2000/svg">
<path fill-rule="evenodd" clip-rule="evenodd" d="M14.3422 0.991186C12.9868 0.337956 11.5016 -0.000854919 9.99705 1.62e-06C8.18876 0.000602606 6.41427 0.49179 4.86299 1.42125C3.31163 2.35075 2.04138 3.68375 1.18752 5.27827C0.333654 6.87279 -0.0718387 8.66912 0.0142273 10.4759C0.0943659 12.1583 0.597885 13.7911 1.47539 15.2239L0.0459713 19.028C-0.0450569 19.2702 0.00108238 19.5427 0.166784 19.7414C0.332484 19.9402 0.592182 20.0345 0.84678 19.9885L5.82988 19.0873C7.12285 19.6813 8.5286 19.9928 9.95325 19.9999C11.4578 20.0074 12.9446 19.675 14.3029 19.0277C15.6612 18.3803 16.8559 17.4347 17.7979 16.2612C18.7399 15.0877 19.405 13.7167 19.7436 12.2503C20.0822 10.7839 20.0855 9.26004 19.7534 7.79219C19.4211 6.32435 18.762 4.95044 17.8251 3.77287C16.8883 2.59531 15.6977 1.64444 14.3422 0.991186Z" fill="#637381"/>
</svg>
