<svg width="20" height="20" viewBox="0 0 20 20" fill="none" xmlns="http://www.w3.org/2000/svg">
<path fill-rule="evenodd" clip-rule="evenodd" d="M9.79084 0.061056C10.3535 0.260361 10.6515 0.888164 10.4565 1.46329C10.0423 2.68518 10.0962 4.00793 10.6107 5.19708C10.8516 5.75375 10.6054 6.40461 10.0608 6.65081C9.51625 6.89702 8.87954 6.64534 8.6387 6.08867C7.90437 4.3914 7.82565 2.49221 8.41912 0.741551C8.61409 0.166419 9.22824 -0.138249 9.79084 0.061056ZM6.40907 4.00186C6.49106 3.39899 6.07943 2.8423 5.48966 2.75848C4.89989 2.67467 4.35533 3.09545 4.27333 3.69834C4.1357 4.71026 4.36467 5.73872 4.91714 6.5901C5.24627 7.09734 5.91535 7.23577 6.41154 6.89932C6.90774 6.56284 7.04317 5.87888 6.71402 5.37166C6.45234 4.96837 6.34387 4.4812 6.40907 4.00186ZM14.8685 6.06934C14.4756 5.96601 14.0635 5.96576 13.6705 6.06859C13.2775 6.17144 12.9163 6.37406 12.6203 6.65764L12.6036 6.67419L6.98103 12.4218L6.97392 12.4292C6.69371 12.7238 6.49052 13.0858 6.38303 13.4818C6.27556 13.8777 6.26727 14.295 6.35891 14.6951C6.45055 15.0951 6.6392 15.4653 6.90745 15.7714C7.17421 16.0755 7.51117 16.3068 7.88761 16.4439L16.8462 19.8576L16.8572 19.8617C17.2706 20.0114 17.7166 20.0403 18.1452 19.9449C18.5737 19.8495 18.9677 19.6338 19.2828 19.322C19.5979 19.0101 19.8216 18.6145 19.9287 18.1799C20.0358 17.745 20.022 17.2885 19.889 16.8611C19.8856 16.8501 19.8818 16.8392 19.878 16.8284L16.5547 7.67802C16.4285 7.28988 16.2097 6.93987 15.918 6.6597C15.6223 6.37573 15.2614 6.17268 14.8685 6.06934ZM4.62109 11.3886C4.16777 11.2834 3.69239 11.3533 3.28645 11.5849C2.76648 11.8815 2.10975 11.6911 1.8196 11.1595C1.52944 10.628 1.71573 9.95666 2.23568 9.66005C3.10644 9.16331 4.12617 9.01338 5.09858 9.23909C5.67924 9.37389 6.04306 9.96433 5.91121 10.5579C5.77936 11.1515 5.20177 11.5234 4.62109 11.3886ZM1.43752 4.9081C0.643598 4.9081 0 5.56601 0 6.3776C0 7.18917 0.643598 7.8471 1.43752 7.8471C2.23144 7.8471 2.87504 7.18917 2.87504 6.3776C2.87504 5.56601 2.23144 4.9081 1.43752 4.9081Z" fill="#637381"/>
</svg>
