<svg width="12" height="12" viewBox="0 0 12 12" fill="none" xmlns="http://www.w3.org/2000/svg">
<path fill-rule="evenodd" clip-rule="evenodd" d="M5.46429 0H2.99077C2.31962 0.0172507 1.68315 0.42327 1.38461 1.02461L0 3.69231V3.70665H5.46429V0ZM0 11.0769V4.77808H12V11.0769C12 11.3217 11.9027 11.5565 11.7297 11.7297C11.5565 11.9027 11.3217 12 11.0769 12H0.923074C0.678261 12 0.443474 11.9027 0.270363 11.7297C0.0972523 11.5565 0 11.3217 0 11.0769ZM12 3.69231V3.70665H6.53571V0H9.00926C9.69617 0.000364509 10.3558 0.409454 10.6616 1.02461L12 3.69231ZM8.08927 7.40242C8.26665 7.16563 8.21849 6.82987 7.9817 6.65248C7.74489 6.47511 7.40914 6.52327 7.23176 6.76006L5.56119 8.99023L4.6605 8.3155C4.4237 8.13812 4.08795 8.18628 3.91056 8.42308C3.73317 8.65989 3.78135 8.99563 4.01814 9.17306L5.34759 10.1689C5.46129 10.2541 5.60419 10.2906 5.74484 10.2705C5.88548 10.2502 6.01234 10.1751 6.09753 10.0613L8.08927 7.40242Z" fill="#637381"/>
</svg>
