<svg width="210" height="251" viewBox="0 0 210 251" fill="none" xmlns="http://www.w3.org/2000/svg">
<g filter="url(#filter0_d_2483_4371)">
<path fill-rule="evenodd" clip-rule="evenodd" d="M120.322 102.61L65.3719 91.0099C67.2112 96.8331 67.7114 100.276 67.2035 106.884C67.087 110.101 66.4326 111.835 64.2443 114.7C64.183 114.78 64.1075 114.852 64.0247 114.91C59.5633 118.016 56.5253 118.732 50.7185 119.096C43.6046 119.166 39.7696 118.233 33.0124 116.043C28.5165 113.982 26.9608 112.397 23.4167 109.469C23.3036 109.376 23.2097 109.256 23.147 109.123C20.5584 103.66 19.8255 101.188 20.1907 97.1155C20.6999 94.2681 21.3163 92.9277 22.633 90.7047L14.0852 89.1783C11.007 90.6321 9.55849 92.14 7.44823 95.7582C7.39616 95.8475 7.35737 95.9477 7.33533 96.0487C5.70744 103.507 5.37373 107.182 5.53741 112.99C6.6314 120.536 7.89215 124.819 11.0324 132.528C13.5678 137.846 15.7191 141.274 20.1361 147.712C20.172 147.764 20.2143 147.815 20.2595 147.859C23.3661 150.915 25.3269 151.986 29.3491 152.066L31.1807 151.627C86.5888 138.361 117.815 129.875 172.219 112.99L147.797 106.884C146.898 109.389 146.131 110.731 144.217 112.896C144.162 112.958 144.098 113.014 144.03 113.06C140.836 115.211 138.63 115.955 133.754 116.043C129.856 115.667 127.797 115.76 125.206 113.601C121.018 110.901 119.821 108.094 120.322 102.61ZM81.6353 108.045C81.7809 108.084 81.916 108.157 82.0284 108.258C83.3578 109.445 84.1572 110.347 85.0857 112.118C85.3373 112.598 85.9148 112.815 86.41 112.594L88.1762 111.809C88.2371 111.782 88.3004 111.762 88.3654 111.747L90.7692 111.213C90.9307 111.177 91.0989 111.182 91.2583 111.226C93.4113 111.822 94.515 112.021 95.2891 114.822C95.8862 117.151 95.7966 118.386 94.1607 120.214C94.1 120.282 94.0277 120.342 93.9504 120.39C89.2361 123.316 86.15 124.556 80.7726 126.196C80.3344 126.33 79.8588 126.145 79.6272 125.75C76.746 120.834 75.7464 117.935 75.1529 113.09C75.1449 113.024 75.1434 112.955 75.1489 112.889C75.3849 110.061 76.0291 108.971 78.1935 108.106C79.3279 107.644 80.1188 107.64 81.6353 108.045Z" fill="white"/>
<path d="M20.1907 97.1155C19.8255 101.188 20.5584 103.66 23.147 109.123C23.2097 109.256 23.3036 109.376 23.4167 109.469C26.9608 112.397 28.5165 113.982 33.0124 116.043C39.7696 118.233 43.6046 119.166 50.7185 119.096C56.5253 118.732 59.5633 118.016 64.0247 114.91C64.1075 114.852 64.183 114.78 64.2443 114.7C66.4326 111.835 67.087 110.101 67.2035 106.884C67.7114 100.276 67.2112 96.8331 65.3719 91.0099C62.6824 85.6604 60.9578 82.7754 56.8241 78.1883C51.8286 74.5139 48.7041 73.5032 42.916 72.7116C42.8276 72.6995 42.7354 72.6994 42.6469 72.7113C39.1928 73.1764 37.2827 73.5553 34.8441 75.78L31.901 77.5131C31.8281 77.556 31.761 77.608 31.7013 77.6677L27.5174 81.8516L25.7457 84.2139C25.7058 84.2671 25.6713 84.324 25.6428 84.384L22.633 90.7047C21.3163 92.9277 20.6999 94.2681 20.1907 97.1155Z" fill="#FB8161"/>
<path fill-rule="evenodd" clip-rule="evenodd" d="M53.1608 61.7033C53.0489 69.0065 53.0425 72.8816 54.3819 74.5249L56.8241 78.1883C60.9578 82.7754 62.6824 85.6604 65.3719 91.0099L120.322 102.61C121.213 98.7542 122.08 96.72 126.427 94.0627C130.21 92.008 132.476 91.5979 136.807 92.2311C139.697 92.9332 141.309 93.3947 144.134 94.6733C147.347 91.9167 150.322 90.0377 153.292 84.9044C156.48 79.6063 157.289 76.059 157.566 70.8616C158.169 62.5837 158.102 59.1199 158.175 54.4716C158.176 54.4088 158.171 54.3455 158.16 54.2836L153.309 26.3892C153.298 26.3239 153.28 26.2599 153.256 26.1981L145.3 5.73936C145.038 5.0664 144.171 4.88413 143.66 5.3947L127.961 21.0941C127.762 21.2932 127.488 21.3991 127.207 21.3859L88.9789 19.594C88.7186 19.5818 88.4734 19.4685 88.2954 19.2782L71.9613 1.81762C71.4561 1.27759 70.5598 1.45373 70.2966 2.14478L61.098 26.291C56.5882 39.3382 55.0974 47.2289 53.1608 61.7033ZM83.9489 36.5663C83.7786 36.6345 83.6303 36.7481 83.5203 36.8948L82.0569 38.846C81.927 39.0191 81.8569 39.2297 81.8569 39.446V41.0422C81.8569 41.5624 82.2557 41.9957 82.7741 42.0388L83.7481 42.1197C84.0909 42.1482 84.4244 41.9984 84.6309 41.7231L85.9891 39.9121C86.0823 39.7879 86.2031 39.6871 86.3419 39.6177L88.1258 38.7258C88.4073 38.585 88.7387 38.585 89.0202 38.7258L90.6038 39.5176C90.8649 39.6481 91.056 39.8863 91.1268 40.1695L91.5012 41.6673C91.5794 41.98 91.8035 42.2359 92.1032 42.3546L93.0351 42.7236C93.5872 42.9422 94.207 42.6345 94.3665 42.0626L94.6075 41.1991C94.6541 41.0322 94.6564 40.856 94.6144 40.6878L94.117 38.6981C94.0846 38.5688 94.0268 38.4472 93.9468 38.3406L92.4493 36.344C92.3115 36.1602 92.1147 36.0295 91.8919 35.9738L89.9135 35.4792C89.8342 35.4594 89.7528 35.4494 89.671 35.4494H86.9339C86.8067 35.4494 86.6806 35.4737 86.5625 35.5209L83.9489 36.5663ZM120.638 37.8389C120.432 37.8732 120.243 37.9708 120.095 38.1182L118.686 39.5274C118.558 39.6556 118.467 39.8161 118.423 39.992L117.95 41.883C117.904 42.0675 117.912 42.2613 117.972 42.4417L118.262 43.3134C118.398 43.7217 118.781 43.9972 119.211 43.9972H119.601C120.032 43.9972 120.414 43.7217 120.55 43.3134L120.858 42.3894C120.907 42.2422 120.99 42.1083 121.099 41.9986L122.327 40.7708C122.595 40.503 122.991 40.4095 123.35 40.5293L124.469 40.902C124.553 40.9301 124.633 40.9694 124.707 41.0187L126.206 42.0182C126.351 42.1147 126.468 42.2474 126.546 42.403L127.372 44.0549C127.542 44.3937 127.888 44.6077 128.267 44.6077H128.48C129.032 44.6077 129.48 44.16 129.48 43.6077V41.3586C129.48 41.0934 129.375 40.839 129.187 40.6515L127.183 38.6473C127.087 38.5515 126.973 38.4762 126.847 38.4259L124.245 37.385C124.075 37.317 123.89 37.297 123.709 37.327L120.638 37.8389ZM105.058 50.1027L101.077 46.1217C100.889 45.9342 100.784 45.6798 100.784 45.4146V45.3285C100.784 44.898 101.06 44.5159 101.468 44.3798L104.293 43.4379C104.395 43.4039 104.502 43.3866 104.61 43.3866H106.087C106.214 43.3866 106.34 43.4109 106.458 43.4581L108.703 44.3563C109.083 44.5081 109.332 44.8758 109.332 45.2847V45.9794C109.332 46.2714 109.204 46.5487 108.983 46.7387L105.058 50.1027V54.9872L115.437 54.3766L116.659 54.144C117.306 53.984 117.913 53.838 118.49 53.7033C119.036 53.576 119.557 53.4589 120.06 53.3497C122.71 52.7756 124.906 52.4214 128.071 51.9616C128.195 51.9437 128.322 51.9517 128.445 51.9712C129.195 52.0899 129.19 51.6916 130.091 51.9344L132.533 53.1555L135.452 54.907C135.541 54.9601 135.621 55.0272 135.689 55.1049C137.366 57.0213 138.21 58.2237 138.639 61.0927C139.051 64.4628 139.122 66.3397 138.639 69.6405C137.743 72.6776 137.227 74.3721 135.586 76.9672C133.478 80.1776 131.648 81.6774 128.259 84.2938C123.647 86.909 120.71 87.535 115.437 88.5677C109.669 89.5362 106.473 89.4675 100.784 89.1783C94.355 88.7157 90.9047 87.6802 84.9945 84.9437C84.9387 84.9179 84.8845 84.8865 84.8344 84.8508L82.3366 83.0727L75.8257 76.4325C75.7762 76.382 75.7315 76.3254 75.6939 76.2656C72.4248 71.0686 71.8845 67.7991 72.088 61.7033C72.4073 58.4908 72.8716 56.7409 74.4695 53.8745C74.5093 53.803 74.5595 53.7349 74.6159 53.6757C77.007 51.1643 78.4773 50.4515 81.1152 50.1188C81.2016 50.1079 81.29 50.109 81.3763 50.1213L85.5202 50.7133L87.2865 51.3238L91.6258 52.5449L94.6785 53.1L105.058 54.9872V50.1027Z" fill="#FFC45A"/>
<path d="M81.8569 39.446C81.8569 39.2297 81.927 39.0191 82.0569 38.846L83.5203 36.8948C83.6303 36.7481 83.7786 36.6345 83.9489 36.5663L86.5625 35.5209C86.6806 35.4737 86.8067 35.4494 86.9339 35.4494H89.671C89.7528 35.4494 89.8342 35.4594 89.9135 35.4792L91.8919 35.9738C92.1147 36.0295 92.3115 36.1602 92.4493 36.344L93.9468 38.3406C94.0268 38.4472 94.0846 38.5688 94.117 38.6981L94.6144 40.6878C94.6564 40.856 94.6541 41.0322 94.6075 41.1991L94.3665 42.0626C94.207 42.6345 93.5872 42.9422 93.0351 42.7236L92.1032 42.3546C91.8035 42.2359 91.5794 41.98 91.5012 41.6673L91.1268 40.1695C91.056 39.8863 90.8649 39.6481 90.6038 39.5176L89.0202 38.7258C88.7387 38.585 88.4073 38.585 88.1258 38.7258L86.3419 39.6177C86.2031 39.6871 86.0823 39.7879 85.9891 39.9121L84.6309 41.7231C84.4244 41.9984 84.0909 42.1482 83.7481 42.1197L82.7741 42.0388C82.2557 41.9957 81.8569 41.5624 81.8569 41.0422V39.446Z" fill="#A07751"/>
<path d="M84.8344 84.8508C84.8845 84.8865 84.9387 84.9179 84.9945 84.9437C90.9047 87.6802 94.355 88.7157 100.784 89.1783C106.473 89.4675 109.669 89.5362 115.437 88.5677C120.71 87.535 123.647 86.909 128.259 84.2938L125.206 78.7988C123.76 76.5245 122.565 75.3564 120.322 73.3038C116.823 70.285 114.608 69.4853 110.553 68.4194C105.897 67.6094 103.204 67.7451 98.3419 68.4194C93.7989 69.5487 90.7896 70.8342 86.8733 74.4041C86.7866 74.4832 86.7138 74.5783 86.66 74.6827L82.3366 83.0727L84.8344 84.8508Z" fill="#FFA488"/>
<path d="M118.423 39.992C118.467 39.8161 118.558 39.6556 118.686 39.5274L120.095 38.1182C120.243 37.9708 120.432 37.8732 120.638 37.8389L123.709 37.327C123.89 37.297 124.075 37.317 124.245 37.385L126.847 38.4259C126.973 38.4762 127.087 38.5515 127.183 38.6473L129.187 40.6515C129.375 40.839 129.48 41.0934 129.48 41.3586V43.6077C129.48 44.16 129.032 44.6077 128.48 44.6077H128.267C127.888 44.6077 127.542 44.3937 127.372 44.0549L126.546 42.403C126.468 42.2474 126.351 42.1147 126.206 42.0182L124.707 41.0187C124.633 40.9694 124.553 40.9301 124.469 40.902L123.35 40.5293C122.991 40.4095 122.595 40.503 122.327 40.7708L121.099 41.9986C120.99 42.1083 120.907 42.2422 120.858 42.3894L120.55 43.3134C120.414 43.7217 120.032 43.9972 119.601 43.9972H119.211C118.781 43.9972 118.398 43.7217 118.262 43.3134L117.972 42.4417C117.912 42.2613 117.904 42.0675 117.95 41.883L118.423 39.992Z" fill="#A07751"/>
<path d="M100.784 45.4146C100.784 45.6798 100.889 45.9342 101.077 46.1217L105.058 50.1027L108.983 46.7387C109.204 46.5487 109.332 46.2714 109.332 45.9794V45.2847C109.332 44.8758 109.083 44.5081 108.703 44.3563L106.458 43.4581C106.34 43.4109 106.214 43.3866 106.087 43.3866H104.61C104.502 43.3866 104.395 43.4039 104.293 43.4379L101.468 44.3798C101.06 44.5159 100.784 44.898 100.784 45.3285V45.4146Z" fill="#A07751"/>
<path d="M144.134 94.6733C141.309 93.3947 139.697 92.9332 136.807 92.2311C132.476 91.5979 130.21 92.008 126.427 94.0627C122.08 96.72 121.213 98.7542 120.322 102.61C119.821 108.094 121.018 110.901 125.206 113.601C127.797 115.76 129.856 115.667 133.754 116.043C138.63 115.955 140.836 115.211 144.03 113.06C144.098 113.014 144.162 112.958 144.217 112.896C146.131 110.731 146.898 109.389 147.797 106.884C147.995 101.42 147.031 98.8154 144.134 94.6733Z" fill="#FFD07D"/>
<path d="M183.917 174.578C183.852 174.63 183.779 174.675 183.704 174.709C178.618 177.032 177.496 176.871 172.219 177.709V187.478C177.362 188.176 180.148 187.376 185.041 185.036C189.637 182.438 192.03 180.812 195.42 177.098C199.886 172.593 201.86 169.262 203.357 163.666L204.273 156.95C204.364 154.61 204.318 153.388 203.968 151.455C203.66 149.383 203.361 148.344 202.747 146.571C202.07 145.153 201.661 144.705 200.915 144.128C198.885 142.412 197.688 142.089 195.501 142.878C195.448 142.897 195.395 142.922 195.346 142.951C193.308 144.146 192.842 145.253 192.978 147.792L194.182 155.615C194.193 155.69 194.196 155.768 194.19 155.845C193.922 159.214 193.494 161.193 191.757 164.887C190.136 169.039 186.962 172.11 183.917 174.578Z" fill="#FFD17F"/>
<path d="M22.633 90.7047L25.6428 84.384C25.6713 84.324 25.7058 84.2671 25.7457 84.2139L27.5174 81.8516L16.6424 80.6433C16.566 80.6348 16.4882 80.6351 16.4118 80.6446C14.1859 80.9213 12.7377 81.3707 9.59652 83.5716C9.0749 83.9371 9.03932 84.6931 9.51537 85.1162L14.0852 89.1783L22.633 90.7047Z" fill="#D7E371"/>
<path d="M27.5174 81.8516L31.7013 77.6677C31.761 77.608 31.8281 77.556 31.901 77.5131L34.8441 75.78L27.6482 70.3497C27.5616 70.2844 27.4649 70.2336 27.362 70.1993L21.2846 68.1734C20.7073 67.981 20.0933 68.3445 19.9845 68.9432L19.0723 73.9603C19.0087 74.31 19.1355 74.6671 19.4054 74.8984L27.5174 81.8516Z" fill="#D7E371"/>
<path d="M11.0324 132.528C7.89215 124.819 6.6314 120.536 5.53741 112.99V205.514C5.53741 205.697 5.58938 205.88 5.68496 206.036C13.9825 219.64 19.5399 227.582 29.3491 237.585V152.066C25.3269 151.986 23.3661 150.915 20.2595 147.859C20.2143 147.815 20.172 147.764 20.1361 147.712C15.7191 141.274 13.5678 137.846 11.0324 132.528Z" fill="#FF5022"/>
<path d="M33.2861 240.29C33.5056 240.478 33.7938 240.581 34.0817 240.556C88.5292 235.824 118.988 228.677 172.079 212.134C172.516 211.998 172.813 211.581 172.789 211.124L172.219 200.299L50.9084 229.56C50.783 229.591 50.6514 229.596 50.524 229.576C47.285 229.067 46.0701 228.29 45.2789 226.1C45.2415 225.997 45.2235 225.887 45.2235 225.776V214.342C45.6469 210.72 46.9464 209.6 50.7185 208.847L172.219 177.709V160.613L50.7185 191.141C46.8176 191.94 45.4081 190.902 44.0572 187.026C44.021 186.922 44.0024 186.811 44.0024 186.701V172.917C44.0024 172.855 44.0083 172.793 44.0198 172.732C44.8482 168.374 46.3121 166.766 50.7185 165.498L172.219 135.581V112.99C117.815 129.875 86.5888 138.361 31.1807 151.627L29.3491 152.066V237.585C30.5888 238.849 31.8964 239.1 33.2861 240.29Z" fill="#FFE2A3"/>
<path d="M172.219 177.709L50.7185 208.847C46.9464 209.6 45.6469 210.72 45.2235 214.342V225.776C45.2235 225.887 45.2415 225.997 45.2789 226.1C46.0701 228.29 47.285 229.067 50.524 229.576C50.6514 229.596 50.783 229.591 50.9084 229.56L172.219 200.299V187.478V177.709Z" fill="#FF9F71"/>
<path d="M172.219 135.581L50.7185 165.498C46.3121 166.766 44.8482 168.374 44.0198 172.732C44.0083 172.793 44.0024 172.855 44.0024 172.917V186.701C44.0024 186.811 44.021 186.922 44.0572 187.026C45.4081 190.902 46.8176 191.94 50.7185 191.141L172.219 160.613V135.581Z" fill="#FF9F71"/>
<path d="M86.41 112.594C85.9148 112.815 85.3373 112.598 85.0857 112.118C84.1572 110.347 83.3578 109.445 82.0284 108.258C81.916 108.157 81.7809 108.084 81.6353 108.045C80.1188 107.64 79.3279 107.644 78.1935 108.106C76.0291 108.971 75.3849 110.061 75.1489 112.889C75.1434 112.955 75.1449 113.024 75.1529 113.09C75.7464 117.935 76.746 120.834 79.6272 125.75C79.8588 126.145 80.3344 126.33 80.7726 126.196C86.15 124.556 89.2361 123.316 93.9504 120.39C94.0277 120.342 94.1 120.282 94.1607 120.214C95.7966 118.386 95.8862 117.151 95.2891 114.822C94.515 112.021 93.4113 111.822 91.2583 111.226C91.0989 111.182 90.9307 111.177 90.7692 111.213L88.3654 111.747C88.3004 111.762 88.2371 111.782 88.1762 111.809L86.41 112.594Z" fill="#E0795B"/>
<path d="M85.5202 50.7133L87.9624 55.5977L89.1835 58.0399C89.4715 58.6159 90.2559 58.7069 90.6681 58.2122L92.8469 55.5977L94.6785 53.1L91.6258 52.5449L87.2865 51.3238L85.5202 50.7133Z" fill="white"/>
<path d="M81.3763 50.1213C81.29 50.109 81.2016 50.1079 81.1152 50.1188C78.4773 50.4515 77.007 51.1643 74.6159 53.6757C74.5595 53.7349 74.5093 53.803 74.4695 53.8745C72.8716 56.7409 72.4073 58.4908 72.088 61.7033C71.8845 67.7991 72.4248 71.0686 75.6939 76.2656C75.7315 76.3254 75.7762 76.382 75.8257 76.4325L82.3366 83.0727L86.66 74.6827C86.7138 74.5783 86.7866 74.4832 86.8733 74.4041C90.7896 70.8342 93.7989 69.5487 98.3419 68.4194C103.204 67.7451 105.897 67.6094 110.553 68.4194C114.608 69.4853 116.823 70.285 120.322 73.3038C122.565 75.3564 123.76 76.5245 125.206 78.7988L128.259 84.2938C131.648 81.6774 133.478 80.1776 135.586 76.9672C137.227 74.3721 137.743 72.6776 138.639 69.6405C139.122 66.3397 139.051 64.4628 138.639 61.0927C138.21 58.2237 137.366 57.0213 135.689 55.1049C135.621 55.0272 135.541 54.9601 135.452 54.907L132.533 53.1555L130.091 51.9344L123.281 58.712C122.75 59.2408 121.847 59.0187 121.622 58.3039L120.06 53.3497L118.49 53.7033C117.913 53.838 117.306 53.984 116.659 54.144L115.437 54.3766L105.058 54.9872L94.6785 53.1L92.8469 55.5977L90.6681 58.2122C90.2559 58.7069 89.4715 58.6159 89.1835 58.0399L87.9624 55.5977L85.5202 50.7133L81.3763 50.1213Z" fill="#CD7657"/>
<path d="M144.134 94.6733C147.347 91.9167 150.322 90.0377 153.292 84.9044C156.48 79.6063 157.289 76.059 157.566 70.8616C158.169 62.5837 158.102 59.1199 158.175 54.4716C158.176 54.4088 158.171 54.3455 158.16 54.2836L153.309 26.3892C153.298 26.3239 153.28 26.2599 153.256 26.1981L145.3 5.73936C145.038 5.0664 144.171 4.88413 143.66 5.3947L127.961 21.0941C127.762 21.2932 127.488 21.3991 127.207 21.3859L88.9789 19.594C88.7186 19.5818 88.4734 19.4685 88.2954 19.2782L71.9613 1.81762C71.4561 1.27759 70.5598 1.45373 70.2966 2.14478L61.098 26.291C56.5882 39.3382 55.0974 47.2289 53.1608 61.7033C53.0489 69.0065 53.0425 72.8816 54.3819 74.5249L56.8241 78.1883M144.134 94.6733C141.309 93.3947 139.697 92.9332 136.807 92.2311C132.476 91.5979 130.21 92.008 126.427 94.0627C122.08 96.72 121.213 98.7542 120.322 102.61M144.134 94.6733C147.031 98.8154 147.995 101.42 147.797 106.884M120.322 102.61L65.3719 91.0099M120.322 102.61C119.821 108.094 121.018 110.901 125.206 113.601C127.797 115.76 129.856 115.667 133.754 116.043C138.63 115.955 140.836 115.211 144.03 113.06C144.098 113.014 144.162 112.958 144.217 112.896C146.131 110.731 146.898 109.389 147.797 106.884M65.3719 91.0099C67.2112 96.8331 67.7114 100.276 67.2035 106.884C67.087 110.101 66.4326 111.835 64.2443 114.7C64.183 114.78 64.1075 114.852 64.0247 114.91C59.5633 118.016 56.5253 118.732 50.7185 119.096C43.6046 119.166 39.7696 118.233 33.0124 116.043C28.5165 113.982 26.9608 112.397 23.4167 109.469C23.3036 109.376 23.2097 109.256 23.147 109.123C20.5584 103.66 19.8255 101.188 20.1907 97.1155C20.6999 94.2681 21.3163 92.9277 22.633 90.7047M65.3719 91.0099C62.6824 85.6604 60.9578 82.7754 56.8241 78.1883M56.8241 78.1883C51.8286 74.5139 48.7041 73.5032 42.916 72.7116C42.8276 72.6995 42.7354 72.6994 42.6469 72.7113C39.1928 73.1764 37.2827 73.5553 34.8441 75.78M22.633 90.7047L25.6428 84.384C25.6713 84.324 25.7058 84.2671 25.7457 84.2139L27.5174 81.8516M22.633 90.7047L14.0852 89.1783M14.0852 89.1783L9.51537 85.1162C9.03932 84.6931 9.0749 83.9371 9.59652 83.5716C12.7377 81.3707 14.1859 80.9213 16.4118 80.6446C16.4882 80.6351 16.566 80.6348 16.6424 80.6433L27.5174 81.8516M14.0852 89.1783C11.007 90.6321 9.55849 92.14 7.44823 95.7582C7.39616 95.8475 7.35737 95.9477 7.33533 96.0487C5.70744 103.507 5.37373 107.182 5.53741 112.99M27.5174 81.8516L31.7013 77.6677C31.761 77.608 31.8281 77.556 31.901 77.5131L34.8441 75.78M27.5174 81.8516L19.4054 74.8984C19.1355 74.6671 19.0087 74.31 19.0723 73.9603L19.9845 68.9432C20.0933 68.3445 20.7073 67.981 21.2846 68.1734L27.362 70.1993C27.4649 70.2336 27.5616 70.2844 27.6482 70.3497L34.8441 75.78M5.53741 112.99C6.6314 120.536 7.89215 124.819 11.0324 132.528C13.5678 137.846 15.7191 141.274 20.1361 147.712C20.172 147.764 20.2143 147.815 20.2595 147.859C23.3661 150.915 25.3269 151.986 29.3491 152.066M5.53741 112.99V205.514C5.53741 205.697 5.58938 205.88 5.68496 206.036C13.9825 219.64 19.5399 227.582 29.3491 237.585M29.3491 152.066C29.9626 151.919 30.5731 151.773 31.1807 151.627M29.3491 152.066V237.585M29.3491 152.066L31.1807 151.627M172.219 112.99L147.797 106.884M172.219 112.99V135.581M172.219 112.99C117.815 129.875 86.5888 138.361 31.1807 151.627M172.219 135.581L50.7185 165.498C46.3121 166.766 44.8482 168.374 44.0198 172.732C44.0083 172.793 44.0024 172.855 44.0024 172.917V186.701C44.0024 186.811 44.021 186.922 44.0572 187.026C45.4081 190.902 46.8176 191.94 50.7185 191.141L172.219 160.613M172.219 135.581V160.613M172.219 160.613V177.709M172.219 177.709L50.7185 208.847C46.9464 209.6 45.6469 210.72 45.2235 214.342V225.776C45.2235 225.887 45.2415 225.997 45.2789 226.1C46.0701 228.29 47.285 229.067 50.524 229.576C50.6514 229.596 50.783 229.591 50.9084 229.56L172.219 200.299M172.219 177.709C177.496 176.871 178.618 177.032 183.704 174.709C183.779 174.675 183.852 174.63 183.917 174.578C186.962 172.11 190.136 169.039 191.757 164.887C193.494 161.193 193.922 159.214 194.19 155.845C194.196 155.768 194.193 155.69 194.182 155.615L192.978 147.792C192.842 145.253 193.308 144.146 195.346 142.951C195.395 142.922 195.448 142.897 195.501 142.878C197.688 142.089 198.885 142.412 200.915 144.128C201.661 144.705 202.07 145.153 202.747 146.571C203.361 148.344 203.66 149.383 203.968 151.455C204.318 153.388 204.364 154.61 204.273 156.95L203.357 163.666C201.86 169.262 199.886 172.593 195.42 177.098C192.03 180.812 189.637 182.438 185.041 185.036C180.148 187.376 177.362 188.176 172.219 187.478M172.219 177.709V187.478M172.219 200.299L172.789 211.124C172.813 211.581 172.516 211.998 172.079 212.134C118.988 228.677 88.5292 235.824 34.0817 240.556C33.7938 240.581 33.5056 240.478 33.2861 240.29C31.8964 239.1 30.5888 238.849 29.3491 237.585M172.219 200.299V187.478M105.058 50.1027L101.077 46.1217C100.889 45.9342 100.784 45.6798 100.784 45.4146V45.3285C100.784 44.898 101.06 44.5159 101.468 44.3798L104.293 43.4379C104.395 43.4039 104.502 43.3866 104.61 43.3866H106.087C106.214 43.3866 106.34 43.4109 106.458 43.4581L108.703 44.3563C109.083 44.5081 109.332 44.8758 109.332 45.2847V45.9794C109.332 46.2714 109.204 46.5487 108.983 46.7387L105.058 50.1027ZM105.058 50.1027V54.9872M105.058 54.9872L115.437 54.3766L116.659 54.144C117.306 53.984 117.913 53.838 118.49 53.7033M105.058 54.9872L94.6785 53.1M128.259 84.2938C123.647 86.909 120.71 87.535 115.437 88.5677C109.669 89.5362 106.473 89.4675 100.784 89.1783C94.355 88.7157 90.9047 87.6802 84.9945 84.9437C84.9387 84.9179 84.8845 84.8865 84.8344 84.8508L82.3366 83.0727M128.259 84.2938C131.648 81.6774 133.478 80.1776 135.586 76.9672C137.227 74.3721 137.743 72.6776 138.639 69.6405C139.122 66.3397 139.051 64.4628 138.639 61.0927C138.21 58.2237 137.366 57.0213 135.689 55.1049C135.621 55.0272 135.541 54.9601 135.452 54.907L132.533 53.1555L130.091 51.9344M128.259 84.2938L125.206 78.7988C123.76 76.5245 122.565 75.3564 120.322 73.3038C116.823 70.285 114.608 69.4853 110.553 68.4194C105.897 67.6094 103.204 67.7451 98.3419 68.4194C93.7989 69.5487 90.7896 70.8342 86.8733 74.4041C86.7866 74.4832 86.7138 74.5783 86.66 74.6827L82.3366 83.0727M82.3366 83.0727L75.8257 76.4325C75.7762 76.382 75.7315 76.3254 75.6939 76.2656C72.4248 71.0686 71.8845 67.7991 72.088 61.7033C72.4073 58.4908 72.8716 56.7409 74.4695 53.8745C74.5093 53.803 74.5595 53.7349 74.6159 53.6757C77.007 51.1643 78.4773 50.4515 81.1152 50.1188C81.2016 50.1079 81.29 50.109 81.3763 50.1213L85.5202 50.7133M85.5202 50.7133L87.9624 55.5977L89.1835 58.0399C89.4715 58.6159 90.2559 58.7069 90.6681 58.2122L92.8469 55.5977L94.6785 53.1M85.5202 50.7133L87.2865 51.3238L91.6258 52.5449L94.6785 53.1M130.091 51.9344C129.19 51.6916 129.195 52.0899 128.445 51.9712C128.322 51.9517 128.195 51.9437 128.071 51.9616C124.906 52.4214 122.71 52.7756 120.06 53.3497M130.091 51.9344L123.281 58.712C122.75 59.2408 121.847 59.0187 121.622 58.3039L120.06 53.3497M118.49 53.7033C119.036 53.576 119.557 53.4589 120.06 53.3497M118.49 53.7033L120.06 53.3497M78.1935 108.106C79.3279 107.644 80.1188 107.64 81.6353 108.045C81.7809 108.084 81.916 108.157 82.0284 108.258C83.3578 109.445 84.1572 110.347 85.0857 112.118C85.3373 112.598 85.9148 112.815 86.41 112.594L88.1762 111.809C88.2371 111.782 88.3004 111.762 88.3654 111.747L90.7692 111.213C90.9307 111.177 91.0989 111.182 91.2583 111.226C93.4113 111.822 94.515 112.021 95.2891 114.822C95.8862 117.151 95.7966 118.386 94.1607 120.214C94.1 120.282 94.0277 120.342 93.9504 120.39C89.2361 123.316 86.15 124.556 80.7726 126.196C80.3344 126.33 79.8588 126.145 79.6272 125.75C76.746 120.834 75.7464 117.935 75.1529 113.09C75.1449 113.024 75.1434 112.955 75.1489 112.889C75.3849 110.061 76.0291 108.971 78.1935 108.106ZM117.972 42.4417L118.262 43.3134C118.398 43.7217 118.781 43.9972 119.211 43.9972H119.601C120.032 43.9972 120.414 43.7217 120.55 43.3134L120.858 42.3894C120.907 42.2422 120.99 42.1083 121.099 41.9986L122.327 40.7708C122.595 40.503 122.991 40.4095 123.35 40.5293L124.469 40.902C124.553 40.9301 124.633 40.9694 124.707 41.0187L126.206 42.0182C126.351 42.1147 126.468 42.2474 126.546 42.403L127.372 44.0549C127.542 44.3937 127.888 44.6077 128.267 44.6077H128.48C129.032 44.6077 129.48 44.16 129.48 43.6077V41.3586C129.48 41.0934 129.375 40.839 129.187 40.6515L127.183 38.6473C127.087 38.5515 126.973 38.4762 126.847 38.4259L124.245 37.385C124.075 37.317 123.89 37.297 123.709 37.327L120.638 37.8389C120.432 37.8732 120.243 37.9708 120.095 38.1182L118.686 39.5274C118.558 39.6556 118.467 39.8161 118.423 39.992L117.95 41.883C117.904 42.0675 117.912 42.2613 117.972 42.4417ZM82.7741 42.0388L83.7481 42.1197C84.0909 42.1482 84.4244 41.9984 84.6309 41.7231L85.9891 39.9121C86.0823 39.7879 86.2031 39.6871 86.3419 39.6177L88.1258 38.7258C88.4073 38.585 88.7387 38.585 89.0202 38.7258L90.6038 39.5176C90.8649 39.6481 91.056 39.8863 91.1268 40.1695L91.5012 41.6673C91.5794 41.98 91.8035 42.2359 92.1032 42.3546L93.0351 42.7236C93.5872 42.9422 94.207 42.6345 94.3665 42.0626L94.6075 41.1991C94.6541 41.0322 94.6564 40.856 94.6144 40.6878L94.117 38.6981C94.0846 38.5688 94.0268 38.4472 93.9468 38.3406L92.4493 36.344C92.3115 36.1602 92.1147 36.0295 91.8919 35.9738L89.9135 35.4792C89.8342 35.4594 89.7528 35.4494 89.671 35.4494H86.9339C86.8067 35.4494 86.6806 35.4737 86.5625 35.5209L83.9489 36.5663C83.7786 36.6345 83.6303 36.7481 83.5203 36.8948L82.0569 38.846C81.927 39.0191 81.8569 39.2297 81.8569 39.446V41.0422C81.8569 41.5624 82.2557 41.9957 82.7741 42.0388Z" stroke="#AC6A2D" stroke-width="3"/>
<path d="M149.591 55.5973L166.686 50.7129" stroke="#A07751" stroke-width="3"/>
<path d="M150.812 65.3667L167.908 67.8089" stroke="#A07751" stroke-width="3"/>
<path d="M149.591 78.7988L163.023 87.3466" stroke="#A07751" stroke-width="3"/>
<path d="M62.8921 42.7764L48.2388 32.397" stroke="#A07751" stroke-width="3"/>
<path d="M60.4497 55.598L38.4697 49.4924" stroke="#A07751" stroke-width="3"/>
<path d="M58.6178 65.9773L37.8589 68.4195" stroke="#A07751" stroke-width="3"/>
<path d="M35.2729 92.6128C35.4096 92.6418 35.5442 92.6694 35.6735 92.6948C36.2834 92.8148 36.8514 93.1927 37.1295 93.7488L37.5262 94.5423C37.7476 94.9851 37.6608 95.5198 37.3108 95.8699C36.9376 96.243 36.3584 96.3143 35.9058 96.0428L34.265 95.0583C33.8667 94.8194 33.623 94.389 33.623 93.9245C33.623 93.0643 34.4313 92.4346 35.2729 92.6128Z" fill="#FF9877"/>
<path d="M46.8675 98.0083L46.8023 97.682C46.6173 96.7571 47.3247 95.8943 48.2679 95.8943C48.6642 95.8943 49.0444 96.0517 49.3247 96.332L50.1298 97.1372C50.4951 97.5024 50.6419 98.0326 50.5167 98.5337C50.3005 99.3983 49.3712 99.8734 48.5438 99.5425L47.9442 99.3026C47.3896 99.0808 46.9846 98.5939 46.8675 98.0083Z" fill="#FF9877"/>
<path d="M57.3223 93.3879L56.9295 91.0315C56.8669 90.6557 57.0567 90.283 57.3975 90.1126C57.7726 89.9251 58.2282 90.0326 58.4798 90.3681L59.6335 91.9064C59.7947 92.1213 59.9203 92.3609 60.0052 92.6158L60.3692 93.7078C60.446 93.9381 60.446 94.1871 60.3692 94.4174C60.127 95.144 59.2442 95.4197 58.6316 94.9602L57.982 94.473C57.6307 94.2096 57.3944 93.821 57.3223 93.3879Z" fill="#FF9877"/>
<path d="M45.5933 83.8119L45.1595 82.9445C44.8473 82.3201 45.0489 81.5609 45.6298 81.1736C46.1182 80.8481 46.7587 80.8659 47.2282 81.218L48.0855 81.861C48.59 82.2394 48.8869 82.8332 48.8869 83.4638V83.7141C48.8869 84.0852 48.7395 84.4412 48.4771 84.7036C48.0054 85.1753 47.2663 85.2485 46.7113 84.8784L46.2823 84.5925C45.9886 84.3967 45.7511 84.1277 45.5933 83.8119Z" fill="#FF9877"/>
<path d="M39.7453 76.6534L38.8266 77.1128C38.2714 77.3904 37.6009 77.2815 37.162 76.8426C36.3904 76.071 36.7221 74.7552 37.7673 74.4416L40.6057 73.5901C41.0815 73.4474 41.5603 73.8036 41.5603 74.3003C41.5603 74.4467 41.5169 74.5898 41.4357 74.7116L40.7074 75.8041C40.4661 76.1661 40.1345 76.4588 39.7453 76.6534Z" fill="#FF9877"/>
<path d="M57.0902 105.955L58.6018 106.459C59.3903 106.722 59.9775 107.387 60.1405 108.202L60.3317 109.158C60.4237 109.618 60.1965 110.083 59.777 110.292C59.459 110.451 59.0817 110.437 58.7768 110.254L56.9947 109.185C56.4906 108.882 56.1114 108.409 55.9256 107.852L55.7426 107.303C55.6532 107.035 55.674 106.742 55.8004 106.49C56.0375 106.015 56.5872 105.788 57.0902 105.955Z" fill="#FF9877"/>
<path d="M39.4875 109.45L37.5662 108.353C36.8766 107.958 36.8428 106.976 37.5037 106.536C37.7541 106.369 38.0634 106.315 38.3555 106.388L39.2716 106.617C39.9365 106.784 40.4704 107.278 40.6871 107.928L40.8282 108.351C40.906 108.585 40.8879 108.84 40.7778 109.06C40.5396 109.536 39.95 109.715 39.4875 109.45Z" fill="#FF9877"/>
</g>
<defs>
<filter id="filter0_d_2483_4371" x="0" y="0" width="209.814" height="250.06" filterUnits="userSpaceOnUse" color-interpolation-filters="sRGB">
<feFlood flood-opacity="0" result="BackgroundImageFix"/>
<feColorMatrix in="SourceAlpha" type="matrix" values="0 0 0 0 0 0 0 0 0 0 0 0 0 0 0 0 0 0 127 0" result="hardAlpha"/>
<feOffset dy="4"/>
<feGaussianBlur stdDeviation="2"/>
<feComposite in2="hardAlpha" operator="out"/>
<feColorMatrix type="matrix" values="0 0 0 0 0 0 0 0 0 0 0 0 0 0 0 0 0 0 0.25 0"/>
<feBlend mode="normal" in2="BackgroundImageFix" result="effect1_dropShadow_2483_4371"/>
<feBlend mode="normal" in="SourceGraphic" in2="effect1_dropShadow_2483_4371" result="shape"/>
</filter>
</defs>
</svg>
